<svg width="50" height="50" viewBox="0 0 50 50" fill="none" xmlns="http://www.w3.org/2000/svg">
<g clip-path="url(#clip0_4_54)">
<mask id="mask0_4_54" style="mask-type:luminance" maskUnits="userSpaceOnUse" x="0" y="-1" width="50" height="51">
<path d="M50 -0.000198364L0 -0.000198364L0 49.9998L50 49.9998L50 -0.000198364Z" fill="white"/>
</mask>
<g mask="url(#mask0_4_54)">
<path d="M50.0001 -3.05176e-05L0.00012207 -3.05176e-05L0.00012207 50L50.0001 50L50.0001 -3.05176e-05Z" fill="#58CC02"/>
<path d="M19.8847 15.1416C20.6269 15.9082 20.4072 17.1679 19.4501 17.6318C16.2812 19.1699 12.4335 18.4717 9.93842 15.8886C7.4433 13.3056 6.8769 9.43845 8.52729 6.3281C9.02533 5.3906 10.1044 5.22458 10.8466 5.9863L19.8847 15.1416Z" fill="#89E219"/>
<path fill-rule="evenodd" clip-rule="evenodd" d="M18.8543 14.1307C22.0135 17.3192 27.5848 17.3192 31.1004 14.1307C34.616 10.9423 30.5731 32.6952 30.5731 32.6415C30.5731 32.6171 28.6932 32.6073 24.9334 32.6171C23.9276 32.622 22.1063 32.6268 19.4842 32.6415C16.9598 18.1737 16.7498 12.0067 18.8543 14.1307Z" fill="#89E219"/>
<path d="M6.01744 9.37968L14.5428 18.8377C15.2557 19.6287 14.992 20.8836 14.0252 21.3133C10.8075 22.7391 6.98423 21.909 4.58191 19.243C2.17956 16.577 1.74988 12.6902 3.50769 9.63847C4.03015 8.7205 5.30455 8.58867 6.01744 9.37968Z" fill="#89E219"/>
<path d="M30.1203 15.141C29.3781 15.9076 29.5978 17.1673 30.5549 17.6312C33.7238 19.1693 37.5715 18.471 40.0666 15.888C42.5568 13.3099 43.1232 9.44272 41.4728 6.33237C40.9748 5.39487 39.8957 5.22885 39.1535 5.99057L30.1203 15.141Z" fill="#89E219"/>
<path d="M43.9874 9.38403L35.4669 18.842C34.754 19.6331 35.0177 20.8879 35.9845 21.3176C39.2023 22.7434 43.0255 21.9084 45.4279 19.2424C47.8351 16.5764 48.2599 12.6897 46.5021 9.63794C45.9747 8.71997 44.7003 8.59302 43.9874 9.38403Z" fill="#89E219"/>
<path fill-rule="evenodd" clip-rule="evenodd" d="M10.8856 10.8102H10.3876C5.73913 10.8102 1.74985 13.6081 -0.00308228 17.6071L-0.00308228 32.5241C1.74985 36.528 5.74401 39.3259 10.3876 39.3259H10.8856C17.1454 39.3259 22.2186 34.2526 22.2186 27.9928L22.2186 22.1481C22.2186 15.8884 17.1454 10.8102 10.8856 10.8102Z" fill="#89E219"/>
<path fill-rule="evenodd" clip-rule="evenodd" d="M50.0017 17.8366C48.3075 13.7155 44.2499 10.8102 39.5185 10.8102H39.1229C39.0936 10.8102 39.0643 10.8102 39.0351 10.8102C32.7753 10.8591 27.7411 15.9762 27.7899 22.2311L27.8339 28.0759C27.8827 34.3014 32.9413 39.321 39.1669 39.321H39.5185C44.2548 39.321 48.3075 36.4157 50.0017 32.2946V17.8366Z" fill="#89E219"/>
<path fill-rule="evenodd" clip-rule="evenodd" d="M11.0906 14.8436C15.4461 14.8436 18.9812 18.3739 18.9812 22.7342V27.4071C18.9812 31.7625 15.451 35.2977 11.0906 35.2977C6.73516 35.2977 3.20001 31.7674 3.20001 27.4071L3.20001 22.7342C3.20001 18.3739 6.73516 14.8436 11.0906 14.8436Z" fill="white"/>
<path fill-rule="evenodd" clip-rule="evenodd" d="M38.8102 14.8436C43.1657 14.8436 46.7009 18.3739 46.7009 22.7342V27.4071C46.7009 31.7625 43.1706 35.2977 38.8102 35.2977C34.4548 35.2977 30.9196 31.7674 30.9196 27.4071V22.7342C30.9196 18.3739 34.4499 14.8436 38.8102 14.8436Z" fill="white"/>
<path fill-rule="evenodd" clip-rule="evenodd" d="M12.3065 19.3747C14.3719 19.3747 16.0516 21.0495 16.0516 23.1198V27.1188C16.0516 29.1843 14.3768 30.8639 12.3065 30.8639C10.2411 30.8639 8.56137 29.1891 8.56137 27.1188L8.56137 23.1198C8.56137 21.0495 10.2411 19.3747 12.3065 19.3747Z" fill="#4B4B4B"/>
<path fill-rule="evenodd" clip-rule="evenodd" d="M25.002 28.4533C27.3701 28.4533 29.2891 30.3722 29.2891 32.7404V34.2297C29.2891 36.5978 27.3701 38.5168 25.002 38.5168C22.6338 38.5168 20.7148 36.5978 20.7148 34.2297V32.7404C20.7148 30.3722 22.6338 28.4533 25.002 28.4533Z" fill="#F48000"/>
<path d="M19.084 33.1504C19.5967 30.416 22.1309 28.4434 25.1631 28.4434C27.9219 28.4434 30.417 30.4648 30.9199 33.1504V33.3701C30.9199 33.541 30.8613 33.6094 30.7051 33.5898L25.168 34.5762C25.0166 34.5762 24.9971 34.5762 24.8408 34.5762L19.2988 33.585C19.1426 33.6045 19.084 33.5361 19.084 33.3652V33.1504Z" fill="#FFC200"/>
<path fill-rule="evenodd" clip-rule="evenodd" d="M24.0938 29.3906C24.3819 29.3223 24.6797 29.2832 24.9776 29.2832C25.295 29.2832 25.6172 29.3223 25.9346 29.4053C26.5791 29.5713 27.0284 30.1523 27.0284 30.8164C27.0284 31.3535 26.5938 31.7832 26.0616 31.7832H23.9424C23.4053 31.7832 22.9756 31.3486 22.9756 30.8164C22.9707 30.1426 23.4346 29.5518 24.0938 29.3906Z" fill="#FFDE00"/>
<path fill-rule="evenodd" clip-rule="evenodd" d="M37.5944 19.3747C39.6599 19.3747 41.3395 21.0495 41.3395 23.1198V27.1188C41.3395 29.1843 39.6647 30.8639 37.5944 30.8639C35.529 30.8639 33.8493 29.1891 33.8493 27.1188V23.1198C33.8542 21.0495 35.529 19.3747 37.5944 19.3747Z" fill="#4B4B4B"/>
<path d="M9.14258 23.9157C10.4774 23.9157 11.5596 22.8379 11.5596 21.5085C11.5596 20.179 10.4774 19.1012 9.14258 19.1012C7.80771 19.1012 6.72559 20.179 6.72559 21.5085C6.72559 22.8379 7.80771 23.9157 9.14258 23.9157Z" fill="white"/>
<path d="M34.0641 23.9157C35.399 23.9157 36.4811 22.8379 36.4811 21.5085C36.4811 20.179 35.399 19.1012 34.0641 19.1012C32.7293 19.1012 31.6472 20.179 31.6472 21.5085C31.6472 22.8379 32.7293 23.9157 34.0641 23.9157Z" fill="white"/>
</g>
</g>
<defs>
<clipPath id="clip0_4_54">
<rect width="50" height="50" rx="10" fill="white"/>
</clipPath>
</defs>
</svg>
