<svg width="55" height="39" viewBox="0 0 55 39" fill="none" xmlns="http://www.w3.org/2000/svg">
<g clip-path="url(#clip0_4_85)">
<mask id="mask0_4_85" style="mask-type:alpha" maskUnits="userSpaceOnUse" x="0" y="0" width="55" height="39">
<path d="M0.012085 0.100739H54.8106V38.3791H0.012085V0.100739Z" fill="white"/>
</mask>
<g mask="url(#mask0_4_85)">
<path fill-rule="evenodd" clip-rule="evenodd" d="M22.7656 4.29122C24.5344 2.44983 26.9964 1.30954 29.7161 1.30954C33.3425 1.30954 36.4854 3.32419 38.1777 6.32602C39.6799 5.65449 41.3069 5.30779 42.9524 5.30862C49.4799 5.30862 54.7784 10.6474 54.7784 17.2354C54.7784 23.8233 49.4799 29.1621 42.9524 29.1621C42.1546 29.1621 41.3769 29.0819 40.6154 28.9304C39.1346 31.5696 36.304 33.3627 33.0806 33.3627C31.7682 33.3652 30.4727 33.0675 29.2931 32.4923C27.7921 36.018 24.2967 38.496 20.2271 38.496C15.9762 38.496 12.37 35.8165 10.9799 32.0491C10.3612 32.1797 9.73051 32.2453 9.09818 32.2449C4.0414 32.2449 -0.0483398 28.0947 -0.0483398 22.9977C-0.0483398 19.5728 1.79305 16.5911 4.52492 14.9794C3.94535 13.6442 3.64703 12.2041 3.64855 10.7486C3.64855 4.8658 8.42327 0.111221 14.3061 0.111221C17.7511 0.111221 20.8335 1.75316 22.7676 4.3017" fill="#00A1E0"/>
<path fill-rule="evenodd" clip-rule="evenodd" d="M7.93772 20.0055C7.90327 20.0954 7.95001 20.1141 7.96109 20.13C8.06404 20.2045 8.1686 20.2585 8.27336 20.3192C8.83344 20.6153 9.36128 20.702 9.91329 20.702C11.0375 20.702 11.7366 20.1036 11.7366 19.1406V19.1217C11.7366 18.2312 10.9468 17.9068 10.2094 17.6752L10.1129 17.6439C9.55488 17.463 9.07338 17.3055 9.07338 16.9388V16.9201C9.07338 16.6058 9.35543 16.3741 9.7906 16.3741C10.2741 16.3741 10.8503 16.5351 11.219 16.7387C11.219 16.7387 11.3282 16.8093 11.3679 16.7039C11.3894 16.6469 11.5774 16.1438 11.5975 16.0874C11.6189 16.0284 11.5814 15.9839 11.5429 15.9609C11.1199 15.703 10.5356 15.5277 9.93122 15.5277L9.819 15.5281C8.78952 15.5281 8.07029 16.1507 8.07029 17.0411V17.0603C8.07029 17.9991 8.86406 18.3053 9.60545 18.5169L9.72472 18.5539C10.2646 18.72 10.732 18.8642 10.732 19.243V19.2619C10.732 19.6104 10.4278 19.8703 9.94029 19.8703C9.75071 19.8703 9.14651 19.8671 8.49175 19.4533C8.41258 19.4071 8.36745 19.3739 8.3064 19.3366C8.27417 19.3171 8.19358 19.2818 8.15853 19.3874L7.93692 20.0039L7.93772 20.0055ZM24.3966 20.0039C24.3622 20.0937 24.4089 20.1125 24.4204 20.1284C24.5229 20.2029 24.6279 20.2569 24.7327 20.3176C25.2927 20.6137 25.8206 20.7004 26.3726 20.7004C27.4968 20.7004 28.1959 20.102 28.1959 19.139V19.1201C28.1959 18.2296 27.4081 17.9052 26.6687 17.6735L26.5722 17.6423C26.0142 17.4614 25.5327 17.3039 25.5327 16.9372V16.9184C25.5327 16.6042 25.8147 16.3725 26.2499 16.3725C26.7334 16.3725 27.3076 16.5334 27.6783 16.7371C27.6783 16.7371 27.7875 16.8076 27.8274 16.7023C27.8487 16.6453 28.0369 16.1422 28.055 16.0858C28.0766 16.0268 28.0389 15.9822 28.0006 15.9593C27.5776 15.7014 26.9933 15.5261 26.3889 15.5261L26.2765 15.5265C25.247 15.5265 24.5278 16.1491 24.5278 17.0395V17.0587C24.5278 17.9975 25.3216 18.3037 26.0629 18.5153L26.182 18.5523C26.7239 18.7183 27.1893 18.8626 27.1893 19.2413V19.2603C27.1893 19.6088 26.8851 19.8687 26.3976 19.8687C26.2076 19.8687 25.6018 19.8655 24.949 19.4517C24.8699 19.4055 24.8235 19.3737 24.7635 19.335C24.7431 19.3221 24.6483 19.2851 24.6158 19.3858L24.3942 20.0023L24.3966 20.0039ZM35.636 18.1166C35.636 18.6605 35.5344 19.0896 35.3358 19.3939C35.1375 19.694 34.8382 19.8411 34.4211 19.8411C34.0041 19.8411 33.7059 19.6952 33.5105 19.3959C33.3137 19.0937 33.2144 18.6625 33.2144 18.1186C33.2144 17.5746 33.3143 17.1475 33.5105 16.8473C33.7055 16.5492 34.0021 16.4061 34.4211 16.4061C34.8402 16.4061 35.1383 16.5506 35.3358 16.8473C35.5356 17.1475 35.636 17.5746 35.636 18.1186V18.1166ZM36.5748 17.1092C36.4823 16.797 36.3391 16.523 36.1477 16.2933C35.9561 16.0636 35.7145 15.8783 35.4264 15.7453C35.1404 15.6113 34.8019 15.5439 34.4191 15.5439C34.0363 15.5439 33.6999 15.6117 33.4118 15.7453C33.1257 15.8791 32.8819 16.0636 32.6905 16.2933C32.4996 16.523 32.3561 16.797 32.2634 17.1092C32.1718 17.4195 32.1252 17.758 32.1252 18.1186C32.1252 18.4792 32.1718 18.8177 32.2634 19.1279C32.3555 19.4402 32.4992 19.7142 32.6905 19.9439C32.8821 20.1735 33.1257 20.3569 33.4118 20.4878C33.6999 20.6184 34.0383 20.6848 34.4191 20.6848C34.7999 20.6848 35.1383 20.6184 35.4244 20.4878C35.7105 20.3573 35.9543 20.1735 36.1457 19.9439C36.3369 19.7142 36.4801 19.4402 36.5728 19.1279C36.6642 18.8177 36.7108 18.4792 36.7108 18.1186C36.7108 17.76 36.6642 17.4195 36.5728 17.1092H36.5748ZM44.2889 19.688C44.2581 19.5967 44.169 19.6312 44.169 19.6312C44.0326 19.6834 43.887 19.7317 43.7318 19.7559C43.5755 19.7805 43.4014 19.7928 43.2181 19.7928C42.7648 19.7928 42.4022 19.6576 42.1443 19.3898C41.8844 19.1219 41.7394 18.6907 41.7414 18.1065C41.7428 17.5746 41.8713 17.1757 42.102 16.8695C42.3296 16.5673 42.6802 16.4102 43.1436 16.4102C43.5304 16.4102 43.8265 16.4551 44.1368 16.5522C44.1368 16.5522 44.2103 16.5842 44.2456 16.4873C44.328 16.2597 44.3888 16.0965 44.4773 15.8467C44.5022 15.7751 44.441 15.7449 44.4186 15.7363C44.297 15.6887 44.0097 15.6107 43.7921 15.5779C43.5886 15.5469 43.3529 15.5308 43.087 15.5308C42.6921 15.5308 42.3415 15.5982 42.0413 15.732C41.7412 15.8656 41.4873 16.0503 41.2859 16.28C41.0844 16.5097 40.9313 16.7837 40.8285 17.0959C40.7268 17.4062 40.6754 17.7467 40.6754 18.1073C40.6754 18.885 40.8849 19.5155 41.3 19.9769C41.715 20.4403 42.3395 20.674 43.1534 20.674C43.6349 20.674 44.1285 20.5767 44.4831 20.4362C44.4831 20.4362 44.5508 20.4036 44.5214 20.3246L44.2897 19.688H44.2889ZM45.9316 17.5928C45.9766 17.2906 46.0594 17.0387 46.1895 16.8433C46.3843 16.5451 46.6811 16.3819 47.0981 16.3819C47.5152 16.3819 47.7912 16.5459 47.9886 16.8433C48.1196 17.0397 48.1768 17.3006 48.1981 17.5928L45.9216 17.5923L45.9316 17.5928ZM49.0946 16.9279C49.0147 16.6277 48.8166 16.3235 48.6877 16.1845C48.4822 15.9649 48.2827 15.8098 48.0833 15.7252C47.7953 15.6027 47.4856 15.5399 47.1727 15.5404C46.7758 15.5404 46.4152 15.6075 46.123 15.7439C45.8309 15.8813 45.5851 16.0683 45.3917 16.302C45.1985 16.5357 45.0533 16.8117 44.9606 17.128C44.8679 17.4402 44.8212 17.7827 44.8212 18.1413C44.8212 18.508 44.8697 18.8485 44.9652 19.1567C45.0617 19.467 45.217 19.739 45.4266 19.9646C45.6361 20.1923 45.904 20.3695 46.2264 20.4945C46.5467 20.6184 46.9355 20.6826 47.3808 20.6812C48.2995 20.6782 48.783 20.4737 48.9804 20.3629C49.0157 20.3432 49.0489 20.3091 49.0074 20.211L48.7999 19.6288C48.7681 19.5419 48.6802 19.5734 48.6802 19.5734C48.4526 19.6584 48.1302 19.8111 47.3747 19.8091C46.8811 19.8083 46.5165 19.6626 46.2868 19.4343C46.0531 19.2006 45.9363 18.8602 45.9181 18.3767L49.1013 18.3791C49.1013 18.3791 49.1851 18.3783 49.1938 18.2965C49.1972 18.2626 49.3028 17.6437 49.0989 16.9285L49.0946 16.9279ZM20.4866 17.5928C20.5315 17.2906 20.6145 17.0387 20.7445 16.8433C20.9395 16.5451 21.236 16.3819 21.6531 16.3819C22.0701 16.3819 22.3461 16.5459 22.5435 16.8433C22.6743 17.0397 22.7315 17.3006 22.7531 17.5928L20.4765 17.5923L20.4866 17.5928ZM23.6496 16.9279C23.5698 16.6277 23.3716 16.3235 23.2426 16.1845C23.0371 15.9649 22.8377 15.8098 22.6382 15.7252C22.3503 15.6027 22.0405 15.5399 21.7276 15.5404C21.3307 15.5404 20.9701 15.6075 20.678 15.7439C20.3859 15.8813 20.1401 16.0683 19.9467 16.302C19.7539 16.5357 19.6082 16.8117 19.5155 17.128C19.4231 17.4402 19.3765 17.7827 19.3765 18.1413C19.3765 18.508 19.4247 18.8485 19.5208 19.1567C19.6171 19.467 19.7726 19.739 19.9801 19.9646C20.1896 20.1923 20.4576 20.3695 20.7799 20.4945C21.1002 20.6184 21.4871 20.6826 21.9343 20.6812C22.853 20.6782 23.3365 20.4737 23.5339 20.3629C23.569 20.3432 23.6024 20.3091 23.5607 20.211L23.3532 19.6288C23.3212 19.5419 23.2334 19.5734 23.2334 19.5734C23.0057 19.6584 22.6834 19.8111 21.9279 19.8091C21.4363 19.8083 21.0696 19.6626 20.84 19.4343C20.6063 19.2006 20.4894 18.8602 20.4713 18.3767L23.6544 18.3791C23.6544 18.3791 23.7382 18.3783 23.7469 18.2965C23.7503 18.2626 23.8559 17.6437 23.6518 16.9285L23.6496 16.9279ZM13.6166 19.6678C13.4919 19.5683 13.4746 19.5439 13.4333 19.4793C13.3702 19.382 13.338 19.2436 13.338 19.0663C13.338 18.7882 13.4307 18.5868 13.6221 18.4518C13.62 18.4522 13.8961 18.2141 14.5448 18.2221C14.8335 18.2273 15.1216 18.2519 15.407 18.2957V19.7402H15.4074C15.4074 19.7402 15.0045 19.827 14.5492 19.8544C13.9025 19.8933 13.6164 19.6682 13.6184 19.6689L13.6166 19.6678ZM14.8818 17.4316C14.7529 17.4221 14.5857 17.4175 14.3862 17.4175C14.1142 17.4175 13.8503 17.4513 13.6045 17.5178C13.3567 17.5847 13.1331 17.6882 12.9417 17.8261C12.7498 17.963 12.5919 18.1422 12.4804 18.3499C12.3677 18.5594 12.3103 18.8052 12.3103 19.0832C12.3103 19.3652 12.3593 19.609 12.456 19.8085C12.5507 20.0063 12.6934 20.1773 12.871 20.3061C13.0477 20.4346 13.2659 20.5297 13.5177 20.5861C13.7675 20.6431 14.0496 20.6719 14.3598 20.6719C14.6862 20.6719 15.0106 20.6445 15.3248 20.5916C15.5925 20.5454 15.8592 20.4935 16.1247 20.436C16.2306 20.4117 16.3483 20.3796 16.3483 20.3796C16.4269 20.3597 16.4208 20.2757 16.4208 20.2757L16.419 17.3746C16.419 16.7379 16.249 16.2645 15.9133 15.9724C15.5789 15.6802 15.0893 15.5332 14.4547 15.5332C14.217 15.5332 13.8322 15.5654 13.6025 15.6115C13.6025 15.6115 12.9095 15.7461 12.6234 15.9702C12.6234 15.9702 12.5605 16.0088 12.5948 16.0965L12.8204 16.7009C12.8484 16.7792 12.9248 16.7524 12.9248 16.7524C12.9248 16.7524 12.9488 16.743 12.977 16.7263C13.5874 16.3938 14.361 16.4039 14.361 16.4039C14.7035 16.4039 14.9695 16.4734 15.1468 16.6094C15.3202 16.7426 15.4087 16.9438 15.4087 17.3669V17.5013C15.1367 17.4618 14.8848 17.439 14.8848 17.439L14.8818 17.4316ZM40.4679 15.7937C40.4725 15.783 40.4749 15.7716 40.475 15.76C40.475 15.7485 40.4728 15.737 40.4683 15.7263C40.4638 15.7156 40.4573 15.706 40.449 15.6979C40.4407 15.6898 40.4309 15.6835 40.4202 15.6792C40.366 15.6587 40.0958 15.6017 39.8883 15.5888C39.4894 15.5638 39.2678 15.6311 39.0683 15.7205C38.8713 15.8094 38.6533 15.9522 38.5324 16.1174L38.532 15.7306C38.532 15.6774 38.4944 15.6345 38.4408 15.6345H37.6268C37.5741 15.6345 37.5358 15.6774 37.5358 15.7306V20.465C37.5358 20.4906 37.546 20.5151 37.5641 20.5332C37.5822 20.5513 37.6067 20.5615 37.6323 20.5615H38.4664C38.4919 20.5615 38.5164 20.5513 38.5345 20.5332C38.5525 20.5151 38.5626 20.4906 38.5626 20.465V18.0878C38.5626 17.7694 38.5977 17.4531 38.6676 17.2537C38.7365 17.0565 38.8302 16.8991 38.9456 16.7863C39.0558 16.6773 39.1905 16.5965 39.3385 16.5506C39.4774 16.5107 39.6211 16.4905 39.7656 16.4905C39.9318 16.4905 40.1141 16.5332 40.1141 16.5332C40.1754 16.5401 40.2094 16.5026 40.2302 16.4474C40.2848 16.3022 40.4397 15.8672 40.4699 15.7806" fill="#FFFFFE"/>
<path fill-rule="evenodd" clip-rule="evenodd" d="M32.6779 13.6086C32.5748 13.5774 32.4699 13.5525 32.3638 13.534C32.2211 13.5102 32.0765 13.499 31.9318 13.5006C31.3571 13.5006 30.904 13.663 30.5858 13.9837C30.2699 14.302 30.055 14.7869 29.9472 15.425L29.9083 15.6403H29.1869C29.1869 15.6403 29.0988 15.6367 29.0803 15.7328L28.9618 16.3936C28.9536 16.4569 28.9808 16.4964 29.0654 16.496H29.7677L29.0551 20.4735C28.9993 20.7938 28.9354 21.0573 28.8647 21.257C28.795 21.454 28.7269 21.6017 28.6431 21.7089C28.5619 21.8126 28.485 21.889 28.3522 21.9335C28.2426 21.9704 28.1165 21.9873 27.9783 21.9873C27.9013 21.9873 27.799 21.9744 27.7234 21.9593C27.6479 21.9444 27.6086 21.9275 27.552 21.9037C27.552 21.9037 27.4696 21.8723 27.4371 21.9549C27.4108 22.0224 27.2236 22.5371 27.2014 22.6008C27.1789 22.6636 27.2105 22.7132 27.2504 22.7275C27.3439 22.7609 27.4134 22.7823 27.5407 22.8123C27.7176 22.854 27.8667 22.8566 28.0063 22.8566C28.2988 22.8566 28.5653 22.8155 28.7864 22.7358C29.0088 22.6554 29.2024 22.5153 29.3736 22.3258C29.5588 22.1213 29.6752 21.9071 29.7866 21.615C29.8968 21.3255 29.9907 20.9661 30.0659 20.5472L30.7819 16.496H31.8287C31.8287 16.496 31.9169 16.4992 31.9353 16.4035L32.0537 15.7427C32.062 15.6794 32.035 15.6399 31.95 15.6403H30.934C30.939 15.6174 30.9851 15.26 31.1018 14.9235C31.1516 14.7799 31.2452 14.664 31.3246 14.5845C31.3987 14.5087 31.49 14.4519 31.5907 14.4189C31.7012 14.3847 31.8163 14.3681 31.9318 14.3697C32.0275 14.3697 32.1214 14.3812 32.1929 14.3961C32.2914 14.4171 32.3297 14.4281 32.3555 14.4358C32.4591 14.4674 32.473 14.4368 32.4933 14.3866L32.7363 13.7194C32.7613 13.6477 32.7004 13.6174 32.6779 13.6086ZM18.4798 20.482C18.4798 20.5351 18.4419 20.5785 18.3887 20.5785H17.546C17.4926 20.5785 17.4547 20.5351 17.4547 20.482V13.699C17.4547 13.646 17.4926 13.6031 17.546 13.6031H18.3887C18.4419 13.6031 18.4798 13.646 18.4798 13.699V20.482Z" fill="#FFFFFE"/>
</g>
</g>
<defs>
<clipPath id="clip0_4_85">
<rect width="55" height="38.4799" fill="white"/>
</clipPath>
</defs>
</svg>
